<svg xmlns:xlink="http://www.w3.org/1999/xlink" width="16.332ex" height="3.343ex" style="font-size: 15px; vertical-align: -0.838ex;" viewBox="0 -1078.4 7031.9 1439.2" role="img" focusable="false" xmlns="http://www.w3.org/2000/svg">
<defs>
<path stroke-width="1" id="E1-MJMATHI-45" d="M492 213Q472 213 472 226Q472 230 477 250T482 285Q482 316 461 323T364 330H312Q311 328 277 192T243 52Q243 48 254 48T334 46Q428 46 458 48T518 61Q567 77 599 117T670 248Q680 270 683 272Q690 274 698 274Q718 274 718 261Q613 7 608 2Q605 0 322 0H133Q31 0 31 11Q31 13 34 25Q38 41 42 43T65 46Q92 46 125 49Q139 52 144 61Q146 66 215 342T285 622Q285 629 281 629Q273 632 228 634H197Q191 640 191 642T193 659Q197 676 203 680H757Q764 676 764 669Q764 664 751 557T737 447Q735 440 717 440H705Q698 445 698 453L701 476Q704 500 704 528Q704 558 697 578T678 609T643 625T596 632T532 634H485Q397 633 392 631Q388 629 386 622Q385 619 355 499T324 377Q347 376 372 376H398Q464 376 489 391T534 472Q538 488 540 490T557 493Q562 493 565 493T570 492T572 491T574 487T577 483L544 351Q511 218 508 216Q505 213 492 213Z"></path>
<path stroke-width="1" id="E1-MJMAIN-28" d="M94 250Q94 319 104 381T127 488T164 576T202 643T244 695T277 729T302 750H315H319Q333 750 333 741Q333 738 316 720T275 667T226 581T184 443T167 250T184 58T225 -81T274 -167T316 -220T333 -241Q333 -250 318 -250H315H302L274 -226Q180 -141 137 -14T94 250Z"></path>
<path stroke-width="1" id="E1-MJMATHBI-3B2" d="M59 -194H49Q31 -194 28 -182Q28 -178 107 139T192 473Q212 533 248 580T324 652T395 689T450 701H461Q514 701 551 688T605 652T630 607T637 561Q637 546 634 526T611 465T556 393Q572 382 590 347T608 262Q608 146 522 69T299 -8Q279 -8 261 -6T228 2T204 13T183 26T169 37T157 48L150 56L120 -64Q113 -90 104 -128Q93 -175 89 -184T73 -194H59ZM531 592Q531 651 463 651Q399 651 341 600T253 466Q250 458 217 327T182 185Q180 176 180 159Q180 108 212 76T301 44Q330 44 354 51T393 65T423 91T444 118T459 151T468 179T475 206Q490 264 491 296Q491 313 489 326T484 345L482 350Q481 350 477 348T464 344T444 340T413 335T372 333T334 334T301 340T274 355T265 380Q265 444 397 444Q425 444 445 441T476 436L485 433Q489 433 499 458Q509 482 520 527T531 592ZM424 390Q424 393 389 393Q383 393 374 393T362 392Q348 392 333 388Q345 384 379 384Q424 384 424 390Z"></path>
<path stroke-width="1" id="E1-MJMAINB-5E" d="M207 632L287 694Q289 693 368 632T448 570T431 545T413 520Q410 520 350 559L287 597L224 559Q164 520 161 520Q160 520 143 544T126 570T207 632Z"></path>
<path stroke-width="1" id="E1-MJMAIN-29" d="M60 749L64 750Q69 750 74 750H86L114 726Q208 641 251 514T294 250Q294 182 284 119T261 12T224 -76T186 -143T145 -194T113 -227T90 -246Q87 -249 86 -250H74Q66 -250 63 -250T58 -247T55 -238Q56 -237 66 -225Q221 -64 221 250T66 725Q56 737 55 738Q55 746 60 749Z"></path>
<path stroke-width="1" id="E1-MJMAIN-3D" d="M56 347Q56 360 70 367H707Q722 359 722 347Q722 336 708 328L390 327H72Q56 332 56 347ZM56 153Q56 168 72 173H708Q722 163 722 153Q722 140 707 133H70Q56 140 56 153Z"></path>
<path stroke-width="1" id="E1-MJMAIN-31" d="M213 578L200 573Q186 568 160 563T102 556H83V602H102Q149 604 189 617T245 641T273 663Q275 666 285 666Q294 666 302 660V361L303 61Q310 54 315 52T339 48T401 46H427V0H416Q395 3 257 3Q121 3 100 0H88V46H114Q136 46 152 46T177 47T193 50T201 52T207 57T213 61V578Z"></path>
<path stroke-width="1" id="E1-MJMAIN-36" d="M42 313Q42 476 123 571T303 666Q372 666 402 630T432 550Q432 525 418 510T379 495Q356 495 341 509T326 548Q326 592 373 601Q351 623 311 626Q240 626 194 566Q147 500 147 364L148 360Q153 366 156 373Q197 433 263 433H267Q313 433 348 414Q372 400 396 374T435 317Q456 268 456 210V192Q456 169 451 149Q440 90 387 34T253 -22Q225 -22 199 -14T143 16T92 75T56 172T42 313ZM257 397Q227 397 205 380T171 335T154 278T148 216Q148 133 160 97T198 39Q222 21 251 21Q302 21 329 59Q342 77 347 104T352 209Q352 289 347 316T329 361Q302 397 257 397Z"></path>
</defs>
<g stroke="currentColor" fill="currentColor" stroke-width="0" transform="matrix(1 0 0 -1 0 0)">
 <use xlink:href="#E1-MJMATHI-45" x="0" y="0"></use>
 <use xlink:href="#E1-MJMAIN-28" x="764" y="0"></use>
<g transform="translate(1154,0)">
 <use xlink:href="#E1-MJMATHBI-3B2" x="0" y="0"></use>
 <use xlink:href="#E1-MJMAINB-5E" x="138" y="290"></use>
</g>
 <use xlink:href="#E1-MJMAIN-29" x="1867" y="0"></use>
 <use xlink:href="#E1-MJMAIN-3D" x="2535" y="0"></use>
 <use xlink:href="#E1-MJMATHBI-3B2" x="3591" y="0"></use>
 <use xlink:href="#E1-MJMAIN-28" x="5251" y="0"></use>
<g transform="translate(5641,0)">
 <use xlink:href="#E1-MJMAIN-31"></use>
 <use xlink:href="#E1-MJMAIN-36" x="500" y="0"></use>
</g>
 <use xlink:href="#E1-MJMAIN-29" x="6642" y="0"></use>
</g>
</svg>