<svg xmlns:xlink="http://www.w3.org/1999/xlink" width="29.157ex" height="3.176ex" style="font-size: 15px; vertical-align: -0.838ex;" viewBox="0 -1006.6 12553.6 1367.4" role="img" focusable="false" xmlns="http://www.w3.org/2000/svg">
<defs>
<path stroke-width="1" id="E1-MJMATHBI-79" d="M206 -150Q240 -150 268 -134T314 -95T344 -48T362 -7T367 14Q339 -7 280 -7Q230 -7 195 5T144 39T122 79T115 122Q115 175 152 274T189 388Q189 396 187 398T176 401Q148 398 125 372T89 304Q84 288 81 285T61 282H55H44Q24 282 24 296Q24 306 34 329T64 381T116 431T188 452Q239 452 273 427T308 361Q308 347 273 253T237 109Q237 43 291 43T388 98Q388 99 425 246T463 396Q471 414 490 429T534 444T573 430T587 399Q587 386 537 186T483 -25Q461 -84 410 -126T296 -188Q248 -202 204 -202Q127 -202 96 -175T64 -114Q64 -82 86 -57T144 -31Q169 -31 184 -45T199 -83Q199 -89 198 -94T196 -104T193 -113T189 -120T184 -128T179 -134T173 -141T168 -147Q189 -150 206 -150Z"></path>
<path stroke-width="1" id="E1-MJMAIN-3D" d="M56 347Q56 360 70 367H707Q722 359 722 347Q722 336 708 328L390 327H72Q56 332 56 347ZM56 153Q56 168 72 173H708Q722 163 722 153Q722 140 707 133H70Q56 140 56 153Z"></path>
<path stroke-width="1" id="E1-MJMATHBI-3B2" d="M59 -194H49Q31 -194 28 -182Q28 -178 107 139T192 473Q212 533 248 580T324 652T395 689T450 701H461Q514 701 551 688T605 652T630 607T637 561Q637 546 634 526T611 465T556 393Q572 382 590 347T608 262Q608 146 522 69T299 -8Q279 -8 261 -6T228 2T204 13T183 26T169 37T157 48L150 56L120 -64Q113 -90 104 -128Q93 -175 89 -184T73 -194H59ZM531 592Q531 651 463 651Q399 651 341 600T253 466Q250 458 217 327T182 185Q180 176 180 159Q180 108 212 76T301 44Q330 44 354 51T393 65T423 91T444 118T459 151T468 179T475 206Q490 264 491 296Q491 313 489 326T484 345L482 350Q481 350 477 348T464 344T444 340T413 335T372 333T334 334T301 340T274 355T265 380Q265 444 397 444Q425 444 445 441T476 436L485 433Q489 433 499 458Q509 482 520 527T531 592ZM424 390Q424 393 389 393Q383 393 374 393T362 392Q348 392 333 388Q345 384 379 384Q424 384 424 390Z"></path>
<path stroke-width="1" id="E1-MJMATHBI-58" d="M931 686Q953 686 953 670Q953 650 944 632Q936 624 924 624H914Q823 624 803 611Q800 609 696 503T591 396Q591 394 667 229L743 62H787H814Q846 62 846 44Q843 7 829 2Q825 0 817 0Q813 0 775 1T664 2Q590 2 551 1T508 0H507Q484 0 484 18Q484 19 488 37Q492 56 497 58T534 62L566 63Q567 64 520 169T471 274Q469 274 369 172T268 67L315 62Q320 62 328 62L335 61Q347 58 347 44Q344 10 331 2L326 0L287 1Q263 2 177 2Q95 2 78 1L53 0Q38 6 38 17Q38 40 50 57Q56 62 78 62Q169 62 188 75Q194 77 435 324L444 334L439 347Q437 351 373 492L313 624H268H246Q220 624 212 632Q210 636 210 642Q210 655 215 669T227 684Q230 686 247 686Q295 684 398 684Q438 684 472 684T527 685T551 686Q567 686 572 671Q572 667 568 651Q563 631 558 628T523 624T492 623H488L526 540Q563 457 564 457Q564 456 574 466T604 496T645 537L724 619Q716 622 677 624H673Q645 624 645 640Q645 660 654 678Q659 683 666 686L704 685Q728 684 813 684Q847 684 873 684T913 685T931 686Z"></path>
<path stroke-width="1" id="E1-MJMAIN-2B" d="M56 237T56 250T70 270H369V420L370 570Q380 583 389 583Q402 583 409 568V270H707Q722 262 722 250T707 230H409V-68Q401 -82 391 -82H389H387Q375 -82 369 -68V230H70Q56 237 56 250Z"></path>
<path stroke-width="1" id="E1-MJMATHBI-3B5" d="M224 -17Q126 -17 81 22T36 112Q36 178 84 226L93 236L88 246Q79 264 79 289Q79 341 124 388Q201 461 333 461Q402 461 455 425Q480 409 481 390Q481 365 464 350T428 334Q415 334 387 352T313 370Q141 370 141 293Q141 275 146 270Q147 270 148 270T155 272Q202 291 263 291H270Q349 291 349 244Q349 195 281 183Q274 182 239 182Q201 182 184 185T137 200Q123 188 112 168T100 129T112 98T148 81T189 75T237 74H243H251Q288 74 310 75T359 86T398 112Q405 124 417 124Q426 124 432 117T439 100Q439 88 427 70T390 32T322 -3T224 -17ZM286 238Q286 240 253 240Q245 240 234 239T216 237T209 235Q209 232 250 232Q286 232 286 238Z"></path>
<path stroke-width="1" id="E1-MJMAIN-223C" d="M55 166Q55 241 101 304T222 367Q260 367 296 349T362 304T421 252T484 208T554 189Q616 189 655 236T694 338Q694 350 698 358T708 367Q722 367 722 334Q722 260 677 197T562 134H554Q517 134 481 152T414 196T355 248T292 293T223 311Q179 311 145 286Q109 257 96 218T80 156T69 133Q55 133 55 166Z"></path>
<path stroke-width="1" id="E1-MJMATHBI-4E" d="M258 624H235Q214 624 209 626T199 639Q203 678 216 684Q220 686 344 686H434Q464 686 477 680Q480 677 607 454Q738 227 739 227Q742 227 789 418T836 618Q836 620 835 620L821 622Q811 622 779 624Q755 624 749 625T740 632Q737 635 737 644Q737 656 742 669T754 685Q755 685 757 685T763 686Q768 686 803 685T890 684Q925 684 951 684T990 685T1006 686Q1014 686 1016 684Q1027 679 1027 668Q1023 632 1011 626Q1007 624 978 624Q912 622 907 617Q907 616 831 314T753 8Q749 0 723 0H712Q699 0 692 7Q692 8 671 44T607 155T526 296L361 580L296 323Q234 74 234 68T302 62H307Q334 62 334 44Q330 6 317 2L313 0L280 1Q260 2 181 2Q125 2 96 1T63 0Q48 0 43 15Q43 19 47 35Q52 55 57 58T94 62Q147 64 164 69L233 345Q302 619 302 622Q302 624 258 624Z"></path>
<path stroke-width="1" id="E1-MJMAIN-28" d="M94 250Q94 319 104 381T127 488T164 576T202 643T244 695T277 729T302 750H315H319Q333 750 333 741Q333 738 316 720T275 667T226 581T184 443T167 250T184 58T225 -81T274 -167T316 -220T333 -241Q333 -250 318 -250H315H302L274 -226Q180 -141 137 -14T94 250Z"></path>
<path stroke-width="1" id="E1-MJMAIN-2C" d="M78 35T78 60T94 103T137 121Q165 121 187 96T210 8Q210 -27 201 -60T180 -117T154 -158T130 -185T117 -194Q113 -194 104 -185T95 -172Q95 -168 106 -156T131 -126T157 -76T173 -3V9L172 8Q170 7 167 6T161 3T152 1T140 0Q113 0 96 17Z"></path>
<path stroke-width="1" id="E1-MJMATHI-3C3" d="M184 -11Q116 -11 74 34T31 147Q31 247 104 333T274 430Q275 431 414 431H552Q553 430 555 429T559 427T562 425T565 422T567 420T569 416T570 412T571 407T572 401Q572 357 507 357Q500 357 490 357T476 358H416L421 348Q439 310 439 263Q439 153 359 71T184 -11ZM361 278Q361 358 276 358Q152 358 115 184Q114 180 114 178Q106 141 106 117Q106 67 131 47T188 26Q242 26 287 73Q316 103 334 153T356 233T361 278Z"></path>
<path stroke-width="1" id="E1-MJMAIN-32" d="M109 429Q82 429 66 447T50 491Q50 562 103 614T235 666Q326 666 387 610T449 465Q449 422 429 383T381 315T301 241Q265 210 201 149L142 93L218 92Q375 92 385 97Q392 99 409 186V189H449V186Q448 183 436 95T421 3V0H50V19V31Q50 38 56 46T86 81Q115 113 136 137Q145 147 170 174T204 211T233 244T261 278T284 308T305 340T320 369T333 401T340 431T343 464Q343 527 309 573T212 619Q179 619 154 602T119 569T109 550Q109 549 114 549Q132 549 151 535T170 489Q170 464 154 447T109 429Z"></path>
<path stroke-width="1" id="E1-MJMATHBI-49" d="M247 624Q242 624 233 624T220 623Q186 623 186 640Q186 647 190 664T202 684Q206 686 226 686Q277 684 393 684Q435 684 471 684T528 685T553 686Q573 686 573 670Q573 650 564 632Q556 624 537 624H501H449L380 344Q309 64 309 63T356 62Q361 62 370 62T384 63Q417 63 417 46Q417 26 408 8Q403 3 396 0L352 1Q325 2 216 2T82 1L45 0Q30 7 30 16Q33 51 46 60Q51 62 102 62H154L294 623Q294 624 247 624Z"></path>
<path stroke-width="1" id="E1-MJMATHI-6E" d="M21 287Q22 293 24 303T36 341T56 388T89 425T135 442Q171 442 195 424T225 390T231 369Q231 367 232 367L243 378Q304 442 382 442Q436 442 469 415T503 336T465 179T427 52Q427 26 444 26Q450 26 453 27Q482 32 505 65T540 145Q542 153 560 153Q580 153 580 145Q580 144 576 130Q568 101 554 73T508 17T439 -10Q392 -10 371 17T350 73Q350 92 386 193T423 345Q423 404 379 404H374Q288 404 229 303L222 291L189 157Q156 26 151 16Q138 -11 108 -11Q95 -11 87 -5T76 7T74 17Q74 30 112 180T152 343Q153 348 153 366Q153 405 129 405Q91 405 66 305Q60 285 60 284Q58 278 41 278H27Q21 284 21 287Z"></path>
<path stroke-width="1" id="E1-MJMAIN-29" d="M60 749L64 750Q69 750 74 750H86L114 726Q208 641 251 514T294 250Q294 182 284 119T261 12T224 -76T186 -143T145 -194T113 -227T90 -246Q87 -249 86 -250H74Q66 -250 63 -250T58 -247T55 -238Q56 -237 66 -225Q221 -64 221 250T66 725Q56 737 55 738Q55 746 60 749Z"></path>
</defs>
<g stroke="currentColor" fill="currentColor" stroke-width="0" transform="matrix(1 0 0 -1 0 0)">
 <use xlink:href="#E1-MJMATHBI-79" x="0" y="0"></use>
 <use xlink:href="#E1-MJMAIN-3D" x="868" y="0"></use>
 <use xlink:href="#E1-MJMATHBI-3B2" x="1924" y="0"></use>
 <use xlink:href="#E1-MJMATHBI-58" x="2585" y="0"></use>
 <use xlink:href="#E1-MJMAIN-2B" x="3760" y="0"></use>
 <use xlink:href="#E1-MJMATHBI-3B5" x="4761" y="0"></use>
 <use xlink:href="#E1-MJMAIN-223C" x="5568" y="0"></use>
 <use xlink:href="#E1-MJMATHBI-4E" x="6625" y="0"></use>
 <use xlink:href="#E1-MJMAIN-28" x="7652" y="0"></use>
 <use xlink:href="#E1-MJMATHBI-3B2" x="8042" y="0"></use>
 <use xlink:href="#E1-MJMATHBI-58" x="8702" y="0"></use>
 <use xlink:href="#E1-MJMAIN-2C" x="9656" y="0"></use>
<g transform="translate(10101,0)">
 <use xlink:href="#E1-MJMATHI-3C3" x="0" y="0"></use>
 <use transform="scale(0.707)" xlink:href="#E1-MJMAIN-32" x="810" y="583"></use>
</g>
<g transform="translate(11127,0)">
 <use xlink:href="#E1-MJMATHBI-49" x="0" y="0"></use>
 <use transform="scale(0.707)" xlink:href="#E1-MJMATHI-6E" x="723" y="-213"></use>
</g>
 <use xlink:href="#E1-MJMAIN-29" x="12164" y="0"></use>
</g>
</svg>