<svg xmlns:xlink="http://www.w3.org/1999/xlink" width="34.04ex" height="3.343ex" style="font-size: 15px; vertical-align: -0.838ex;" viewBox="0 -1078.4 14656.3 1439.2" role="img" focusable="false" xmlns="http://www.w3.org/2000/svg">
<defs>
<path stroke-width="1" id="E1-MJMATHBI-79" d="M206 -150Q240 -150 268 -134T314 -95T344 -48T362 -7T367 14Q339 -7 280 -7Q230 -7 195 5T144 39T122 79T115 122Q115 175 152 274T189 388Q189 396 187 398T176 401Q148 398 125 372T89 304Q84 288 81 285T61 282H55H44Q24 282 24 296Q24 306 34 329T64 381T116 431T188 452Q239 452 273 427T308 361Q308 347 273 253T237 109Q237 43 291 43T388 98Q388 99 425 246T463 396Q471 414 490 429T534 444T573 430T587 399Q587 386 537 186T483 -25Q461 -84 410 -126T296 -188Q248 -202 204 -202Q127 -202 96 -175T64 -114Q64 -82 86 -57T144 -31Q169 -31 184 -45T199 -83Q199 -89 198 -94T196 -104T193 -113T189 -120T184 -128T179 -134T173 -141T168 -147Q189 -150 206 -150Z"></path>
<path stroke-width="1" id="E1-MJMAIN-3D" d="M56 347Q56 360 70 367H707Q722 359 722 347Q722 336 708 328L390 327H72Q56 332 56 347ZM56 153Q56 168 72 173H708Q722 163 722 153Q722 140 707 133H70Q56 140 56 153Z"></path>
<path stroke-width="1" id="E1-MJMATHBI-58" d="M931 686Q953 686 953 670Q953 650 944 632Q936 624 924 624H914Q823 624 803 611Q800 609 696 503T591 396Q591 394 667 229L743 62H787H814Q846 62 846 44Q843 7 829 2Q825 0 817 0Q813 0 775 1T664 2Q590 2 551 1T508 0H507Q484 0 484 18Q484 19 488 37Q492 56 497 58T534 62L566 63Q567 64 520 169T471 274Q469 274 369 172T268 67L315 62Q320 62 328 62L335 61Q347 58 347 44Q344 10 331 2L326 0L287 1Q263 2 177 2Q95 2 78 1L53 0Q38 6 38 17Q38 40 50 57Q56 62 78 62Q169 62 188 75Q194 77 435 324L444 334L439 347Q437 351 373 492L313 624H268H246Q220 624 212 632Q210 636 210 642Q210 655 215 669T227 684Q230 686 247 686Q295 684 398 684Q438 684 472 684T527 685T551 686Q567 686 572 671Q572 667 568 651Q563 631 558 628T523 624T492 623H488L526 540Q563 457 564 457Q564 456 574 466T604 496T645 537L724 619Q716 622 677 624H673Q645 624 645 640Q645 660 654 678Q659 683 666 686L704 685Q728 684 813 684Q847 684 873 684T913 685T931 686Z"></path>
<path stroke-width="1" id="E1-MJMATHBI-3B2" d="M59 -194H49Q31 -194 28 -182Q28 -178 107 139T192 473Q212 533 248 580T324 652T395 689T450 701H461Q514 701 551 688T605 652T630 607T637 561Q637 546 634 526T611 465T556 393Q572 382 590 347T608 262Q608 146 522 69T299 -8Q279 -8 261 -6T228 2T204 13T183 26T169 37T157 48L150 56L120 -64Q113 -90 104 -128Q93 -175 89 -184T73 -194H59ZM531 592Q531 651 463 651Q399 651 341 600T253 466Q250 458 217 327T182 185Q180 176 180 159Q180 108 212 76T301 44Q330 44 354 51T393 65T423 91T444 118T459 151T468 179T475 206Q490 264 491 296Q491 313 489 326T484 345L482 350Q481 350 477 348T464 344T444 340T413 335T372 333T334 334T301 340T274 355T265 380Q265 444 397 444Q425 444 445 441T476 436L485 433Q489 433 499 458Q509 482 520 527T531 592ZM424 390Q424 393 389 393Q383 393 374 393T362 392Q348 392 333 388Q345 384 379 384Q424 384 424 390Z"></path>
<path stroke-width="1" id="E1-MJMAIN-2B" d="M56 237T56 250T70 270H369V420L370 570Q380 583 389 583Q402 583 409 568V270H707Q722 262 722 250T707 230H409V-68Q401 -82 391 -82H389H387Q375 -82 369 -68V230H70Q56 237 56 250Z"></path>
<path stroke-width="1" id="E1-MJMATHBI-3B5" d="M224 -17Q126 -17 81 22T36 112Q36 178 84 226L93 236L88 246Q79 264 79 289Q79 341 124 388Q201 461 333 461Q402 461 455 425Q480 409 481 390Q481 365 464 350T428 334Q415 334 387 352T313 370Q141 370 141 293Q141 275 146 270Q147 270 148 270T155 272Q202 291 263 291H270Q349 291 349 244Q349 195 281 183Q274 182 239 182Q201 182 184 185T137 200Q123 188 112 168T100 129T112 98T148 81T189 75T237 74H243H251Q288 74 310 75T359 86T398 112Q405 124 417 124Q426 124 432 117T439 100Q439 88 427 70T390 32T322 -3T224 -17ZM286 238Q286 240 253 240Q245 240 234 239T216 237T209 235Q209 232 250 232Q286 232 286 238Z"></path>
<path stroke-width="1" id="E1-MJMATHI-6F" d="M201 -11Q126 -11 80 38T34 156Q34 221 64 279T146 380Q222 441 301 441Q333 441 341 440Q354 437 367 433T402 417T438 387T464 338T476 268Q476 161 390 75T201 -11ZM121 120Q121 70 147 48T206 26Q250 26 289 58T351 142Q360 163 374 216T388 308Q388 352 370 375Q346 405 306 405Q243 405 195 347Q158 303 140 230T121 120Z"></path>
<path stroke-width="1" id="E1-MJMATHI-72" d="M21 287Q22 290 23 295T28 317T38 348T53 381T73 411T99 433T132 442Q161 442 183 430T214 408T225 388Q227 382 228 382T236 389Q284 441 347 441H350Q398 441 422 400Q430 381 430 363Q430 333 417 315T391 292T366 288Q346 288 334 299T322 328Q322 376 378 392Q356 405 342 405Q286 405 239 331Q229 315 224 298T190 165Q156 25 151 16Q138 -11 108 -11Q95 -11 87 -5T76 7T74 17Q74 30 114 189T154 366Q154 405 128 405Q107 405 92 377T68 316T57 280Q55 278 41 278H27Q21 284 21 287Z"></path>
<path stroke-width="1" id="E1-MJMAINB-5E" d="M207 632L287 694Q289 693 368 632T448 570T431 545T413 520Q410 520 350 559L287 597L224 559Q164 520 161 520Q160 520 143 544T126 570T207 632Z"></path>
<path stroke-width="1" id="E1-MJMAIN-28" d="M94 250Q94 319 104 381T127 488T164 576T202 643T244 695T277 729T302 750H315H319Q333 750 333 741Q333 738 316 720T275 667T226 581T184 443T167 250T184 58T225 -81T274 -167T316 -220T333 -241Q333 -250 318 -250H315H302L274 -226Q180 -141 137 -14T94 250Z"></path>
<path stroke-width="1" id="E1-MJMAIN-31" d="M213 578L200 573Q186 568 160 563T102 556H83V602H102Q149 604 189 617T245 641T273 663Q275 666 285 666Q294 666 302 660V361L303 61Q310 54 315 52T339 48T401 46H427V0H416Q395 3 257 3Q121 3 100 0H88V46H114Q136 46 152 46T177 47T193 50T201 52T207 57T213 61V578Z"></path>
<path stroke-width="1" id="E1-MJMAIN-34" d="M462 0Q444 3 333 3Q217 3 199 0H190V46H221Q241 46 248 46T265 48T279 53T286 61Q287 63 287 115V165H28V211L179 442Q332 674 334 675Q336 677 355 677H373L379 671V211H471V165H379V114Q379 73 379 66T385 54Q393 47 442 46H471V0H462ZM293 211V545L74 212L183 211H293Z"></path>
<path stroke-width="1" id="E1-MJMAIN-29" d="M60 749L64 750Q69 750 74 750H86L114 726Q208 641 251 514T294 250Q294 182 284 119T261 12T224 -76T186 -143T145 -194T113 -227T90 -246Q87 -249 86 -250H74Q66 -250 63 -250T58 -247T55 -238Q56 -237 66 -225Q221 -64 221 250T66 725Q56 737 55 738Q55 746 60 749Z"></path>
</defs>
<g stroke="currentColor" fill="currentColor" stroke-width="0" transform="matrix(1 0 0 -1 0 0)">
 <use xlink:href="#E1-MJMATHBI-79" x="0" y="0"></use>
 <use xlink:href="#E1-MJMAIN-3D" x="868" y="0"></use>
 <use xlink:href="#E1-MJMATHBI-58" x="1924" y="0"></use>
 <use xlink:href="#E1-MJMATHBI-3B2" x="2878" y="0"></use>
 <use xlink:href="#E1-MJMAIN-2B" x="3760" y="0"></use>
 <use xlink:href="#E1-MJMATHBI-3B5" x="4761" y="0"></use>
 <use xlink:href="#E1-MJMATHI-6F" x="6291" y="0"></use>
 <use xlink:href="#E1-MJMATHI-72" x="6776" y="0"></use>
<g transform="translate(8228,0)">
 <use xlink:href="#E1-MJMATHBI-79" x="0" y="0"></use>
 <use xlink:href="#E1-MJMAINB-5E" x="71" y="41"></use>
</g>
 <use xlink:href="#E1-MJMAIN-3D" x="9152" y="0"></use>
 <use xlink:href="#E1-MJMATHBI-58" x="10208" y="0"></use>
<g transform="translate(11162,0)">
 <use xlink:href="#E1-MJMATHBI-3B2" x="0" y="0"></use>
 <use xlink:href="#E1-MJMAINB-5E" x="138" y="290"></use>
</g>
 <use xlink:href="#E1-MJMAIN-28" x="12876" y="0"></use>
<g transform="translate(13265,0)">
 <use xlink:href="#E1-MJMAIN-31"></use>
 <use xlink:href="#E1-MJMAIN-34" x="500" y="0"></use>
</g>
 <use xlink:href="#E1-MJMAIN-29" x="14266" y="0"></use>
</g>
</svg>